<svg xmlns="http://www.w3.org/2000/svg" version="1.1" xmlns:xlink="http://www.w3.org/1999/xlink" xmlns:svgjs="http://svgjs.dev/svgjs" width="1440" height="560" preserveAspectRatio="none" viewBox="0 0 1440 560"><g mask="url(&quot;#SvgjsMask1104&quot;)" fill="none"><g mask="url(&quot;#SvgjsMask1105&quot;)"><path d="M855 361L513 19L323 19L133 209" stroke-width="6.33" stroke="rgba(246, 238, 255, 1)"></path><path d="M845.5 361 a9.5 9.5 0 1 0 19 0 a9.5 9.5 0 1 0 -19 0zM123.5 209 a9.5 9.5 0 1 0 19 0 a9.5 9.5 0 1 0 -19 0z" fill="rgba(246, 238, 255, 1)"></path><path d="M133 399L475 57L513 57L855 399" stroke-width="6.33" stroke="rgba(246, 238, 255, 1)"></path><path d="M123.5 399 a9.5 9.5 0 1 0 19 0 a9.5 9.5 0 1 0 -19 0zM845.5 399 a9.5 9.5 0 1 0 19 0 a9.5 9.5 0 1 0 -19 0z" fill="rgba(246, 238, 255, 1)"></path><path d="M323 513L513 323L741 323L969 551L1045 551" stroke-width="6.33" stroke="rgba(246, 238, 255, 1)"></path><path d="M313.5 513 a9.5 9.5 0 1 0 19 0 a9.5 9.5 0 1 0 -19 0zM1035.5 551 a9.5 9.5 0 1 0 19 0 a9.5 9.5 0 1 0 -19 0z" fill="rgba(246, 238, 255, 1)"></path><path d="M1083 475L1159 551L1273 551L1387 437L1387 19" stroke-width="6.33" stroke="rgba(246, 238, 255, 1)"></path><path d="M1073.5 475 a9.5 9.5 0 1 0 19 0 a9.5 9.5 0 1 0 -19 0zM1377.5 19 a9.5 9.5 0 1 0 19 0 a9.5 9.5 0 1 0 -19 0z" fill="rgba(246, 238, 255, 1)"></path><path d="M95 285L19 285" stroke-width="6.33" stroke="rgba(246, 238, 255, 1)"></path><path d="M85.5 285 a9.5 9.5 0 1 0 19 0 a9.5 9.5 0 1 0 -19 0zM9.5 285 a9.5 9.5 0 1 0 19 0 a9.5 9.5 0 1 0 -19 0z" fill="rgba(246, 238, 255, 1)"></path><path d="M1349 95L1349 19" stroke-width="6.33" stroke="rgba(246, 238, 255, 1)"></path><path d="M1339.5 95 a9.5 9.5 0 1 0 19 0 a9.5 9.5 0 1 0 -19 0zM1339.5 19 a9.5 9.5 0 1 0 19 0 a9.5 9.5 0 1 0 -19 0z" fill="rgba(246, 238, 255, 1)"></path><path d="M741 19L1235 513L1273 513L1349 437L1349 323" stroke-width="6.33" stroke="rgba(246, 238, 255, 1)"></path><path d="M731.5 19 a9.5 9.5 0 1 0 19 0 a9.5 9.5 0 1 0 -19 0zM1339.5 323 a9.5 9.5 0 1 0 19 0 a9.5 9.5 0 1 0 -19 0z" fill="rgba(246, 238, 255, 1)"></path><path d="M247 133L285 171L285 209L133 361L19 361" stroke-width="6.33" stroke="rgba(246, 238, 255, 1)"></path><path d="M237.5 133 a9.5 9.5 0 1 0 19 0 a9.5 9.5 0 1 0 -19 0zM9.5 361 a9.5 9.5 0 1 0 19 0 a9.5 9.5 0 1 0 -19 0z" fill="rgba(246, 238, 255, 1)"></path><path d="M95 475L475 95L513 95L665 247L665 285" stroke-width="6.33" stroke="rgba(246, 238, 255, 1)"></path><path d="M85.5 475 a9.5 9.5 0 1 0 19 0 a9.5 9.5 0 1 0 -19 0zM655.5 285 a9.5 9.5 0 1 0 19 0 a9.5 9.5 0 1 0 -19 0z" fill="rgba(246, 238, 255, 1)"></path><path d="M1007 437L1007 361L931 285L931 247L703 19L551 19" stroke-width="6.33" stroke="rgba(246, 238, 255, 1)"></path><path d="M997.5 437 a9.5 9.5 0 1 0 19 0 a9.5 9.5 0 1 0 -19 0zM541.5 19 a9.5 9.5 0 1 0 19 0 a9.5 9.5 0 1 0 -19 0z" fill="rgba(246, 238, 255, 1)"></path><path d="M817 285L855 247L893 247" stroke-width="6.33" stroke="rgba(246, 238, 255, 1)"></path><path d="M807.5 285 a9.5 9.5 0 1 0 19 0 a9.5 9.5 0 1 0 -19 0zM883.5 247 a9.5 9.5 0 1 0 19 0 a9.5 9.5 0 1 0 -19 0z" fill="rgba(246, 238, 255, 1)"></path><path d="M1425 399L1425 551" stroke-width="6.33" stroke="rgba(246, 238, 255, 1)"></path><path d="M1415.5 399 a9.5 9.5 0 1 0 19 0 a9.5 9.5 0 1 0 -19 0zM1415.5 551 a9.5 9.5 0 1 0 19 0 a9.5 9.5 0 1 0 -19 0z" fill="rgba(246, 238, 255, 1)"></path><path d="M19 209L209 19L285 19" stroke-width="6.33" stroke="rgba(246, 238, 255, 1)"></path><path d="M9.5 209 a9.5 9.5 0 1 0 19 0 a9.5 9.5 0 1 0 -19 0zM275.5 19 a9.5 9.5 0 1 0 19 0 a9.5 9.5 0 1 0 -19 0z" fill="rgba(246, 238, 255, 1)"></path><path d="M475 551L665 361L741 361L931 551" stroke-width="6.33" stroke="rgba(246, 238, 255, 1)"></path><path d="M465.5 551 a9.5 9.5 0 1 0 19 0 a9.5 9.5 0 1 0 -19 0zM921.5 551 a9.5 9.5 0 1 0 19 0 a9.5 9.5 0 1 0 -19 0z" fill="rgba(246, 238, 255, 1)"></path><path d="M1121 475L1045 399L1045 361" stroke-width="6.33" stroke="rgba(246, 238, 255, 1)"></path><path d="M1111.5 475 a9.5 9.5 0 1 0 19 0 a9.5 9.5 0 1 0 -19 0zM1035.5 361 a9.5 9.5 0 1 0 19 0 a9.5 9.5 0 1 0 -19 0z" fill="rgba(246, 238, 255, 1)"></path><path d="M323 171L437 57" stroke-width="6.33" stroke="rgba(246, 238, 255, 1)"></path><path d="M313.5 171 a9.5 9.5 0 1 0 19 0 a9.5 9.5 0 1 0 -19 0zM427.5 57 a9.5 9.5 0 1 0 19 0 a9.5 9.5 0 1 0 -19 0z" fill="rgba(246, 238, 255, 1)"></path><path d="M931 95L855 19L779 19" stroke-width="6.33" stroke="rgba(246, 238, 255, 1)"></path><path d="M921.5 95 a9.5 9.5 0 1 0 19 0 a9.5 9.5 0 1 0 -19 0zM769.5 19 a9.5 9.5 0 1 0 19 0 a9.5 9.5 0 1 0 -19 0z" fill="rgba(246, 238, 255, 1)"></path><path d="M551 513L665 399L741 399L893 551" stroke-width="6.33" stroke="rgba(246, 238, 255, 1)"></path><path d="M541.5 513 a9.5 9.5 0 1 0 19 0 a9.5 9.5 0 1 0 -19 0zM883.5 551 a9.5 9.5 0 1 0 19 0 a9.5 9.5 0 1 0 -19 0z" fill="rgba(246, 238, 255, 1)"></path><path d="M589 57L627 95L665 95L817 247" stroke-width="6.33" stroke="rgba(246, 238, 255, 1)"></path><path d="M579.5 57 a9.5 9.5 0 1 0 19 0 a9.5 9.5 0 1 0 -19 0zM807.5 247 a9.5 9.5 0 1 0 19 0 a9.5 9.5 0 1 0 -19 0z" fill="rgba(246, 238, 255, 1)"></path><path d="M1083 133L969 19L893 19" stroke-width="6.33" stroke="rgba(246, 238, 255, 1)"></path><path d="M1073.5 133 a9.5 9.5 0 1 0 19 0 a9.5 9.5 0 1 0 -19 0zM883.5 19 a9.5 9.5 0 1 0 19 0 a9.5 9.5 0 1 0 -19 0z" fill="rgba(246, 238, 255, 1)"></path><path d="M95 399L95 437L19 513L19 551" stroke-width="6.33" stroke="rgba(246, 238, 255, 1)"></path><path d="M85.5 399 a9.5 9.5 0 1 0 19 0 a9.5 9.5 0 1 0 -19 0zM9.5 551 a9.5 9.5 0 1 0 19 0 a9.5 9.5 0 1 0 -19 0z" fill="rgba(246, 238, 255, 1)"></path><path d="M1349 133L1349 209L1273 285L1273 475" stroke-width="6.33" stroke="rgba(246, 238, 255, 1)"></path><path d="M1339.5 133 a9.5 9.5 0 1 0 19 0 a9.5 9.5 0 1 0 -19 0zM1263.5 475 a9.5 9.5 0 1 0 19 0 a9.5 9.5 0 1 0 -19 0z" fill="rgba(246, 238, 255, 1)"></path><path d="M1235 247L1121 361" stroke-width="6.33" stroke="rgba(246, 238, 255, 1)"></path><path d="M1225.5 247 a9.5 9.5 0 1 0 19 0 a9.5 9.5 0 1 0 -19 0zM1111.5 361 a9.5 9.5 0 1 0 19 0 a9.5 9.5 0 1 0 -19 0z" fill="rgba(246, 238, 255, 1)"></path><path d="M779 513L779 475L741 437L665 437L589 513L589 551" stroke-width="6.33" stroke="rgba(246, 238, 255, 1)"></path><path d="M769.5 513 a9.5 9.5 0 1 0 19 0 a9.5 9.5 0 1 0 -19 0zM579.5 551 a9.5 9.5 0 1 0 19 0 a9.5 9.5 0 1 0 -19 0z" fill="rgba(246, 238, 255, 1)"></path><path d="M133 323L247 209L247 171" stroke-width="6.33" stroke="rgba(246, 238, 255, 1)"></path><path d="M123.5 323 a9.5 9.5 0 1 0 19 0 a9.5 9.5 0 1 0 -19 0zM237.5 171 a9.5 9.5 0 1 0 19 0 a9.5 9.5 0 1 0 -19 0z" fill="rgba(246, 238, 255, 1)"></path><path d="M95 247L19 247" stroke-width="6.33" stroke="rgba(246, 238, 255, 1)"></path><path d="M85.5 247 a9.5 9.5 0 1 0 19 0 a9.5 9.5 0 1 0 -19 0zM9.5 247 a9.5 9.5 0 1 0 19 0 a9.5 9.5 0 1 0 -19 0z" fill="rgba(246, 238, 255, 1)"></path><path d="M1045 475L1045 513L1083 551L1121 551" stroke-width="6.33" stroke="rgba(246, 238, 255, 1)"></path><path d="M1035.5 475 a9.5 9.5 0 1 0 19 0 a9.5 9.5 0 1 0 -19 0zM1111.5 551 a9.5 9.5 0 1 0 19 0 a9.5 9.5 0 1 0 -19 0z" fill="rgba(246, 238, 255, 1)"></path><path d="M1083 209L931 57" stroke-width="6.33" stroke="rgba(246, 238, 255, 1)"></path><path d="M1073.5 209 a9.5 9.5 0 1 0 19 0 a9.5 9.5 0 1 0 -19 0zM921.5 57 a9.5 9.5 0 1 0 19 0 a9.5 9.5 0 1 0 -19 0z" fill="rgba(246, 238, 255, 1)"></path><path d="M551 209L551 171L513 133L475 133L57 551" stroke-width="6.33" stroke="rgba(246, 238, 255, 1)"></path><path d="M541.5 209 a9.5 9.5 0 1 0 19 0 a9.5 9.5 0 1 0 -19 0zM47.5 551 a9.5 9.5 0 1 0 19 0 a9.5 9.5 0 1 0 -19 0z" fill="rgba(246, 238, 255, 1)"></path><path d="M1273 95L1197 19L1007 19" stroke-width="6.33" stroke="rgba(246, 238, 255, 1)"></path><path d="M1263.5 95 a9.5 9.5 0 1 0 19 0 a9.5 9.5 0 1 0 -19 0zM997.5 19 a9.5 9.5 0 1 0 19 0 a9.5 9.5 0 1 0 -19 0z" fill="rgba(246, 238, 255, 1)"></path><path d="M1311 361L1311 323L1349 285L1349 247" stroke-width="6.33" stroke="rgba(246, 238, 255, 1)"></path><path d="M1301.5 361 a9.5 9.5 0 1 0 19 0 a9.5 9.5 0 1 0 -19 0zM1339.5 247 a9.5 9.5 0 1 0 19 0 a9.5 9.5 0 1 0 -19 0z" fill="rgba(246, 238, 255, 1)"></path><path d="M893 399L1007 513" stroke-width="6.33" stroke="rgba(246, 238, 255, 1)"></path><path d="M883.5 399 a9.5 9.5 0 1 0 19 0 a9.5 9.5 0 1 0 -19 0zM997.5 513 a9.5 9.5 0 1 0 19 0 a9.5 9.5 0 1 0 -19 0z" fill="rgba(246, 238, 255, 1)"></path><path d="M285 551L95 551" stroke-width="6.33" stroke="rgba(246, 238, 255, 1)"></path><path d="M275.5 551 a9.5 9.5 0 1 0 19 0 a9.5 9.5 0 1 0 -19 0zM85.5 551 a9.5 9.5 0 1 0 19 0 a9.5 9.5 0 1 0 -19 0z" fill="rgba(246, 238, 255, 1)"></path><path d="M247 437L247 399L475 171L513 171" stroke-width="6.33" stroke="rgba(246, 238, 255, 1)"></path><path d="M237.5 437 a9.5 9.5 0 1 0 19 0 a9.5 9.5 0 1 0 -19 0zM503.5 171 a9.5 9.5 0 1 0 19 0 a9.5 9.5 0 1 0 -19 0z" fill="rgba(246, 238, 255, 1)"></path><path d="M1197 171L1083 285L1045 285L893 133L893 95" stroke-width="6.33" stroke="rgba(246, 238, 255, 1)"></path><path d="M1187.5 171 a9.5 9.5 0 1 0 19 0 a9.5 9.5 0 1 0 -19 0zM883.5 95 a9.5 9.5 0 1 0 19 0 a9.5 9.5 0 1 0 -19 0z" fill="rgba(246, 238, 255, 1)"></path><path d="M171 95L171 133L95 209L57 209" stroke-width="6.33" stroke="rgba(246, 238, 255, 1)"></path><path d="M161.5 95 a9.5 9.5 0 1 0 19 0 a9.5 9.5 0 1 0 -19 0zM47.5 209 a9.5 9.5 0 1 0 19 0 a9.5 9.5 0 1 0 -19 0z" fill="rgba(246, 238, 255, 1)"></path><path d="M475 209L361 323L361 361L399 399" stroke-width="6.33" stroke="rgba(246, 238, 255, 1)"></path><path d="M465.5 209 a9.5 9.5 0 1 0 19 0 a9.5 9.5 0 1 0 -19 0zM389.5 399 a9.5 9.5 0 1 0 19 0 a9.5 9.5 0 1 0 -19 0z" fill="rgba(246, 238, 255, 1)"></path><path d="M1197 133L1197 57" stroke-width="6.33" stroke="rgba(246, 238, 255, 1)"></path><path d="M1187.5 133 a9.5 9.5 0 1 0 19 0 a9.5 9.5 0 1 0 -19 0zM1187.5 57 a9.5 9.5 0 1 0 19 0 a9.5 9.5 0 1 0 -19 0z" fill="rgba(246, 238, 255, 1)"></path><path d="M1235 19L1311 95" stroke-width="6.33" stroke="rgba(246, 238, 255, 1)"></path><path d="M1225.5 19 a9.5 9.5 0 1 0 19 0 a9.5 9.5 0 1 0 -19 0zM1301.5 95 a9.5 9.5 0 1 0 19 0 a9.5 9.5 0 1 0 -19 0z" fill="rgba(246, 238, 255, 1)"></path><path d="M1425 171L1425 19" stroke-width="6.33" stroke="rgba(246, 238, 255, 1)"></path><path d="M1415.5 171 a9.5 9.5 0 1 0 19 0 a9.5 9.5 0 1 0 -19 0zM1415.5 19 a9.5 9.5 0 1 0 19 0 a9.5 9.5 0 1 0 -19 0z" fill="rgba(246, 238, 255, 1)"></path><path d="M247 513L171 513" stroke-width="6.33" stroke="rgba(246, 238, 255, 1)"></path><path d="M237.5 513 a9.5 9.5 0 1 0 19 0 a9.5 9.5 0 1 0 -19 0zM161.5 513 a9.5 9.5 0 1 0 19 0 a9.5 9.5 0 1 0 -19 0z" fill="rgba(246, 238, 255, 1)"></path><path d="M741 95L741 133L817 209L855 209" stroke-width="6.33" stroke="rgba(246, 238, 255, 1)"></path><path d="M731.5 95 a9.5 9.5 0 1 0 19 0 a9.5 9.5 0 1 0 -19 0zM845.5 209 a9.5 9.5 0 1 0 19 0 a9.5 9.5 0 1 0 -19 0z" fill="rgba(246, 238, 255, 1)"></path><path d="M1083 323L1121 323L1159 285" stroke-width="6.33" stroke="rgba(246, 238, 255, 1)"></path><path d="M1073.5 323 a9.5 9.5 0 1 0 19 0 a9.5 9.5 0 1 0 -19 0zM1149.5 285 a9.5 9.5 0 1 0 19 0 a9.5 9.5 0 1 0 -19 0z" fill="rgba(246, 238, 255, 1)"></path><path d="M57 19L95 57L95 95" stroke-width="6.33" stroke="rgba(246, 238, 255, 1)"></path><path d="M47.5 19 a9.5 9.5 0 1 0 19 0 a9.5 9.5 0 1 0 -19 0zM85.5 95 a9.5 9.5 0 1 0 19 0 a9.5 9.5 0 1 0 -19 0z" fill="rgba(246, 238, 255, 1)"></path><path d="M513 437L513 399L551 361L627 361" stroke-width="6.33" stroke="rgba(246, 238, 255, 1)"></path><path d="M503.5 437 a9.5 9.5 0 1 0 19 0 a9.5 9.5 0 1 0 -19 0zM617.5 361 a9.5 9.5 0 1 0 19 0 a9.5 9.5 0 1 0 -19 0z" fill="rgba(246, 238, 255, 1)"></path><path d="M1159 133L1159 57" stroke-width="6.33" stroke="rgba(246, 238, 255, 1)"></path><path d="M1149.5 133 a9.5 9.5 0 1 0 19 0 a9.5 9.5 0 1 0 -19 0zM1149.5 57 a9.5 9.5 0 1 0 19 0 a9.5 9.5 0 1 0 -19 0z" fill="rgba(246, 238, 255, 1)"></path><path d="M741 475L665 475L627 513L627 551" stroke-width="6.33" stroke="rgba(246, 238, 255, 1)"></path><path d="M731.5 475 a9.5 9.5 0 1 0 19 0 a9.5 9.5 0 1 0 -19 0zM617.5 551 a9.5 9.5 0 1 0 19 0 a9.5 9.5 0 1 0 -19 0z" fill="rgba(246, 238, 255, 1)"></path><path d="M931 361L969 399L969 437" stroke-width="6.33" stroke="rgba(246, 238, 255, 1)"></path><path d="M921.5 361 a9.5 9.5 0 1 0 19 0 a9.5 9.5 0 1 0 -19 0zM959.5 437 a9.5 9.5 0 1 0 19 0 a9.5 9.5 0 1 0 -19 0z" fill="rgba(246, 238, 255, 1)"></path><path d="M1425 247L1425 361" stroke-width="6.33" stroke="rgba(246, 238, 255, 1)"></path><path d="M1415.5 247 a9.5 9.5 0 1 0 19 0 a9.5 9.5 0 1 0 -19 0zM1415.5 361 a9.5 9.5 0 1 0 19 0 a9.5 9.5 0 1 0 -19 0z" fill="rgba(246, 238, 255, 1)"></path><path d="M475 323L437 361L399 361" stroke-width="6.33" stroke="rgba(246, 238, 255, 1)"></path><path d="M465.5 323 a9.5 9.5 0 1 0 19 0 a9.5 9.5 0 1 0 -19 0zM389.5 361 a9.5 9.5 0 1 0 19 0 a9.5 9.5 0 1 0 -19 0z" fill="rgba(246, 238, 255, 1)"></path><path d="M19 133L19 19" stroke-width="6.33" stroke="rgba(246, 238, 255, 1)"></path><path d="M9.5 133 a9.5 9.5 0 1 0 19 0 a9.5 9.5 0 1 0 -19 0zM9.5 19 a9.5 9.5 0 1 0 19 0 a9.5 9.5 0 1 0 -19 0z" fill="rgba(246, 238, 255, 1)"></path><path d="M323 551L437 551" stroke-width="6.33" stroke="rgba(246, 238, 255, 1)"></path><path d="M313.5 551 a9.5 9.5 0 1 0 19 0 a9.5 9.5 0 1 0 -19 0zM427.5 551 a9.5 9.5 0 1 0 19 0 a9.5 9.5 0 1 0 -19 0z" fill="rgba(246, 238, 255, 1)"></path><path d="M437 323L437 285L513 209" stroke-width="6.33" stroke="rgba(246, 238, 255, 1)"></path><path d="M427.5 323 a9.5 9.5 0 1 0 19 0 a9.5 9.5 0 1 0 -19 0zM503.5 209 a9.5 9.5 0 1 0 19 0 a9.5 9.5 0 1 0 -19 0z" fill="rgba(246, 238, 255, 1)"></path><path d="M931 323L855 323" stroke-width="6.33" stroke="rgba(246, 238, 255, 1)"></path><path d="M921.5 323 a9.5 9.5 0 1 0 19 0 a9.5 9.5 0 1 0 -19 0zM845.5 323 a9.5 9.5 0 1 0 19 0 a9.5 9.5 0 1 0 -19 0z" fill="rgba(246, 238, 255, 1)"></path><path d="M1159 171L1045 57" stroke-width="6.33" stroke="rgba(246, 238, 255, 1)"></path><path d="M1149.5 171 a9.5 9.5 0 1 0 19 0 a9.5 9.5 0 1 0 -19 0zM1035.5 57 a9.5 9.5 0 1 0 19 0 a9.5 9.5 0 1 0 -19 0z" fill="rgba(246, 238, 255, 1)"></path><path d="M1197 399L1235 437L1235 475" stroke-width="6.33" stroke="rgba(246, 238, 255, 1)"></path><path d="M1187.5 399 a9.5 9.5 0 1 0 19 0 a9.5 9.5 0 1 0 -19 0zM1225.5 475 a9.5 9.5 0 1 0 19 0 a9.5 9.5 0 1 0 -19 0z" fill="rgba(246, 238, 255, 1)"></path><path d="M779 551L741 513L665 513" stroke-width="6.33" stroke="rgba(246, 238, 255, 1)"></path><path d="M769.5 551 a9.5 9.5 0 1 0 19 0 a9.5 9.5 0 1 0 -19 0zM655.5 513 a9.5 9.5 0 1 0 19 0 a9.5 9.5 0 1 0 -19 0z" fill="rgba(246, 238, 255, 1)"></path><path d="M1235 361L1235 285" stroke-width="6.33" stroke="rgba(246, 238, 255, 1)"></path><path d="M1225.5 361 a9.5 9.5 0 1 0 19 0 a9.5 9.5 0 1 0 -19 0zM1225.5 285 a9.5 9.5 0 1 0 19 0 a9.5 9.5 0 1 0 -19 0z" fill="rgba(246, 238, 255, 1)"></path><path d="M589 285L551 247L513 247" stroke-width="6.33" stroke="rgba(246, 238, 255, 1)"></path><path d="M579.5 285 a9.5 9.5 0 1 0 19 0 a9.5 9.5 0 1 0 -19 0zM503.5 247 a9.5 9.5 0 1 0 19 0 a9.5 9.5 0 1 0 -19 0z" fill="rgba(246, 238, 255, 1)"></path><path d="M361 437L323 475L209 475" stroke-width="6.33" stroke="rgba(246, 238, 255, 1)"></path><path d="M351.5 437 a9.5 9.5 0 1 0 19 0 a9.5 9.5 0 1 0 -19 0zM199.5 475 a9.5 9.5 0 1 0 19 0 a9.5 9.5 0 1 0 -19 0z" fill="rgba(246, 238, 255, 1)"></path><path d="M1311 209L1235 209" stroke-width="6.33" stroke="rgba(246, 238, 255, 1)"></path><path d="M1301.5 209 a9.5 9.5 0 1 0 19 0 a9.5 9.5 0 1 0 -19 0zM1225.5 209 a9.5 9.5 0 1 0 19 0 a9.5 9.5 0 1 0 -19 0z" fill="rgba(246, 238, 255, 1)"></path></g></g><defs><mask id="SvgjsMask1104"><rect width="1440" height="560" fill="#ffffff"></rect></mask><mask id="SvgjsMask1105"><rect width="1440" height="560" fill="white"></rect><path d="M850.25 361 a4.75 4.75 0 1 0 9.5 0 a4.75 4.75 0 1 0 -9.5 0zM128.25 209 a4.75 4.75 0 1 0 9.5 0 a4.75 4.75 0 1 0 -9.5 0z" fill="black"></path><path d="M128.25 399 a4.75 4.75 0 1 0 9.5 0 a4.75 4.75 0 1 0 -9.5 0zM850.25 399 a4.75 4.75 0 1 0 9.5 0 a4.75 4.75 0 1 0 -9.5 0z" fill="black"></path><path d="M318.25 513 a4.75 4.75 0 1 0 9.5 0 a4.75 4.75 0 1 0 -9.5 0zM1040.25 551 a4.75 4.75 0 1 0 9.5 0 a4.75 4.75 0 1 0 -9.5 0z" fill="black"></path><path d="M1078.25 475 a4.75 4.75 0 1 0 9.5 0 a4.75 4.75 0 1 0 -9.5 0zM1382.25 19 a4.75 4.75 0 1 0 9.5 0 a4.75 4.75 0 1 0 -9.5 0z" fill="black"></path><path d="M90.25 285 a4.75 4.75 0 1 0 9.5 0 a4.75 4.75 0 1 0 -9.5 0zM14.25 285 a4.75 4.75 0 1 0 9.5 0 a4.75 4.75 0 1 0 -9.5 0z" fill="black"></path><path d="M1344.25 95 a4.75 4.75 0 1 0 9.5 0 a4.75 4.75 0 1 0 -9.5 0zM1344.25 19 a4.75 4.75 0 1 0 9.5 0 a4.75 4.75 0 1 0 -9.5 0z" fill="black"></path><path d="M736.25 19 a4.75 4.75 0 1 0 9.5 0 a4.75 4.75 0 1 0 -9.5 0zM1344.25 323 a4.75 4.75 0 1 0 9.5 0 a4.75 4.75 0 1 0 -9.5 0z" fill="black"></path><path d="M242.25 133 a4.75 4.75 0 1 0 9.5 0 a4.75 4.75 0 1 0 -9.5 0zM14.25 361 a4.75 4.75 0 1 0 9.5 0 a4.75 4.75 0 1 0 -9.5 0z" fill="black"></path><path d="M90.25 475 a4.75 4.75 0 1 0 9.5 0 a4.75 4.75 0 1 0 -9.5 0zM660.25 285 a4.75 4.75 0 1 0 9.5 0 a4.75 4.75 0 1 0 -9.5 0z" fill="black"></path><path d="M1002.25 437 a4.75 4.75 0 1 0 9.5 0 a4.75 4.75 0 1 0 -9.5 0zM546.25 19 a4.75 4.75 0 1 0 9.5 0 a4.75 4.75 0 1 0 -9.5 0z" fill="black"></path><path d="M812.25 285 a4.75 4.75 0 1 0 9.5 0 a4.75 4.75 0 1 0 -9.5 0zM888.25 247 a4.75 4.75 0 1 0 9.5 0 a4.75 4.75 0 1 0 -9.5 0z" fill="black"></path><path d="M1420.25 399 a4.75 4.75 0 1 0 9.5 0 a4.75 4.75 0 1 0 -9.5 0zM1420.25 551 a4.75 4.75 0 1 0 9.5 0 a4.75 4.75 0 1 0 -9.5 0z" fill="black"></path><path d="M14.25 209 a4.75 4.75 0 1 0 9.5 0 a4.75 4.75 0 1 0 -9.5 0zM280.25 19 a4.75 4.75 0 1 0 9.5 0 a4.75 4.75 0 1 0 -9.5 0z" fill="black"></path><path d="M470.25 551 a4.75 4.75 0 1 0 9.5 0 a4.75 4.75 0 1 0 -9.5 0zM926.25 551 a4.75 4.75 0 1 0 9.5 0 a4.75 4.75 0 1 0 -9.5 0z" fill="black"></path><path d="M1116.25 475 a4.75 4.75 0 1 0 9.5 0 a4.75 4.75 0 1 0 -9.5 0zM1040.25 361 a4.75 4.75 0 1 0 9.5 0 a4.75 4.75 0 1 0 -9.5 0z" fill="black"></path><path d="M318.25 171 a4.75 4.75 0 1 0 9.5 0 a4.75 4.75 0 1 0 -9.5 0zM432.25 57 a4.75 4.75 0 1 0 9.5 0 a4.75 4.75 0 1 0 -9.5 0z" fill="black"></path><path d="M926.25 95 a4.75 4.75 0 1 0 9.5 0 a4.75 4.75 0 1 0 -9.5 0zM774.25 19 a4.75 4.75 0 1 0 9.5 0 a4.75 4.75 0 1 0 -9.5 0z" fill="black"></path><path d="M546.25 513 a4.75 4.75 0 1 0 9.5 0 a4.75 4.75 0 1 0 -9.5 0zM888.25 551 a4.75 4.75 0 1 0 9.5 0 a4.75 4.75 0 1 0 -9.5 0z" fill="black"></path><path d="M584.25 57 a4.75 4.75 0 1 0 9.5 0 a4.75 4.75 0 1 0 -9.5 0zM812.25 247 a4.75 4.75 0 1 0 9.5 0 a4.75 4.75 0 1 0 -9.5 0z" fill="black"></path><path d="M1078.25 133 a4.75 4.75 0 1 0 9.5 0 a4.75 4.75 0 1 0 -9.5 0zM888.25 19 a4.75 4.75 0 1 0 9.5 0 a4.75 4.75 0 1 0 -9.5 0z" fill="black"></path><path d="M90.25 399 a4.75 4.75 0 1 0 9.5 0 a4.75 4.75 0 1 0 -9.5 0zM14.25 551 a4.75 4.75 0 1 0 9.5 0 a4.75 4.75 0 1 0 -9.5 0z" fill="black"></path><path d="M1344.25 133 a4.75 4.75 0 1 0 9.5 0 a4.75 4.75 0 1 0 -9.5 0zM1268.25 475 a4.75 4.75 0 1 0 9.5 0 a4.75 4.75 0 1 0 -9.5 0z" fill="black"></path><path d="M1230.25 247 a4.75 4.75 0 1 0 9.5 0 a4.75 4.75 0 1 0 -9.5 0zM1116.25 361 a4.75 4.75 0 1 0 9.5 0 a4.75 4.75 0 1 0 -9.5 0z" fill="black"></path><path d="M774.25 513 a4.75 4.75 0 1 0 9.5 0 a4.75 4.75 0 1 0 -9.5 0zM584.25 551 a4.75 4.75 0 1 0 9.5 0 a4.75 4.75 0 1 0 -9.5 0z" fill="black"></path><path d="M128.25 323 a4.75 4.75 0 1 0 9.5 0 a4.75 4.75 0 1 0 -9.5 0zM242.25 171 a4.75 4.75 0 1 0 9.5 0 a4.75 4.75 0 1 0 -9.5 0z" fill="black"></path><path d="M90.25 247 a4.75 4.75 0 1 0 9.5 0 a4.75 4.75 0 1 0 -9.5 0zM14.25 247 a4.75 4.75 0 1 0 9.5 0 a4.75 4.75 0 1 0 -9.5 0z" fill="black"></path><path d="M1040.25 475 a4.75 4.75 0 1 0 9.5 0 a4.75 4.75 0 1 0 -9.5 0zM1116.25 551 a4.75 4.75 0 1 0 9.5 0 a4.75 4.75 0 1 0 -9.5 0z" fill="black"></path><path d="M1078.25 209 a4.75 4.75 0 1 0 9.5 0 a4.75 4.75 0 1 0 -9.5 0zM926.25 57 a4.75 4.75 0 1 0 9.5 0 a4.75 4.75 0 1 0 -9.5 0z" fill="black"></path><path d="M546.25 209 a4.75 4.75 0 1 0 9.5 0 a4.75 4.75 0 1 0 -9.5 0zM52.25 551 a4.75 4.75 0 1 0 9.5 0 a4.75 4.75 0 1 0 -9.5 0z" fill="black"></path><path d="M1268.25 95 a4.75 4.75 0 1 0 9.5 0 a4.75 4.75 0 1 0 -9.5 0zM1002.25 19 a4.75 4.75 0 1 0 9.5 0 a4.75 4.75 0 1 0 -9.5 0z" fill="black"></path><path d="M1306.25 361 a4.75 4.75 0 1 0 9.5 0 a4.75 4.75 0 1 0 -9.5 0zM1344.25 247 a4.75 4.75 0 1 0 9.5 0 a4.75 4.75 0 1 0 -9.5 0z" fill="black"></path><path d="M888.25 399 a4.75 4.75 0 1 0 9.5 0 a4.75 4.75 0 1 0 -9.5 0zM1002.25 513 a4.75 4.75 0 1 0 9.5 0 a4.75 4.75 0 1 0 -9.5 0z" fill="black"></path><path d="M280.25 551 a4.75 4.75 0 1 0 9.5 0 a4.75 4.75 0 1 0 -9.5 0zM90.25 551 a4.75 4.75 0 1 0 9.5 0 a4.75 4.75 0 1 0 -9.5 0z" fill="black"></path><path d="M242.25 437 a4.75 4.75 0 1 0 9.5 0 a4.75 4.75 0 1 0 -9.5 0zM508.25 171 a4.75 4.75 0 1 0 9.5 0 a4.75 4.75 0 1 0 -9.5 0z" fill="black"></path><path d="M1192.25 171 a4.75 4.75 0 1 0 9.5 0 a4.75 4.75 0 1 0 -9.5 0zM888.25 95 a4.75 4.75 0 1 0 9.5 0 a4.75 4.75 0 1 0 -9.5 0z" fill="black"></path><path d="M166.25 95 a4.75 4.75 0 1 0 9.5 0 a4.75 4.75 0 1 0 -9.5 0zM52.25 209 a4.75 4.75 0 1 0 9.5 0 a4.75 4.75 0 1 0 -9.5 0z" fill="black"></path><path d="M470.25 209 a4.75 4.75 0 1 0 9.5 0 a4.75 4.75 0 1 0 -9.5 0zM394.25 399 a4.75 4.75 0 1 0 9.5 0 a4.75 4.75 0 1 0 -9.5 0z" fill="black"></path><path d="M1192.25 133 a4.75 4.75 0 1 0 9.5 0 a4.75 4.75 0 1 0 -9.5 0zM1192.25 57 a4.75 4.75 0 1 0 9.5 0 a4.75 4.75 0 1 0 -9.5 0z" fill="black"></path><path d="M1230.25 19 a4.75 4.75 0 1 0 9.5 0 a4.75 4.75 0 1 0 -9.5 0zM1306.25 95 a4.75 4.75 0 1 0 9.5 0 a4.75 4.75 0 1 0 -9.5 0z" fill="black"></path><path d="M1420.25 171 a4.75 4.75 0 1 0 9.5 0 a4.75 4.75 0 1 0 -9.5 0zM1420.25 19 a4.75 4.75 0 1 0 9.5 0 a4.75 4.75 0 1 0 -9.5 0z" fill="black"></path><path d="M242.25 513 a4.75 4.75 0 1 0 9.5 0 a4.75 4.75 0 1 0 -9.5 0zM166.25 513 a4.75 4.75 0 1 0 9.5 0 a4.75 4.75 0 1 0 -9.5 0z" fill="black"></path><path d="M736.25 95 a4.75 4.75 0 1 0 9.5 0 a4.75 4.75 0 1 0 -9.5 0zM850.25 209 a4.75 4.75 0 1 0 9.5 0 a4.75 4.75 0 1 0 -9.5 0z" fill="black"></path><path d="M1078.25 323 a4.75 4.75 0 1 0 9.5 0 a4.75 4.75 0 1 0 -9.5 0zM1154.25 285 a4.75 4.75 0 1 0 9.5 0 a4.75 4.75 0 1 0 -9.5 0z" fill="black"></path><path d="M52.25 19 a4.75 4.75 0 1 0 9.5 0 a4.75 4.75 0 1 0 -9.5 0zM90.25 95 a4.75 4.75 0 1 0 9.5 0 a4.75 4.75 0 1 0 -9.5 0z" fill="black"></path><path d="M508.25 437 a4.75 4.75 0 1 0 9.5 0 a4.75 4.75 0 1 0 -9.5 0zM622.25 361 a4.75 4.75 0 1 0 9.5 0 a4.75 4.75 0 1 0 -9.5 0z" fill="black"></path><path d="M1154.25 133 a4.75 4.75 0 1 0 9.5 0 a4.75 4.75 0 1 0 -9.5 0zM1154.25 57 a4.75 4.75 0 1 0 9.5 0 a4.75 4.75 0 1 0 -9.5 0z" fill="black"></path><path d="M736.25 475 a4.75 4.75 0 1 0 9.5 0 a4.75 4.75 0 1 0 -9.5 0zM622.25 551 a4.75 4.75 0 1 0 9.5 0 a4.75 4.75 0 1 0 -9.5 0z" fill="black"></path><path d="M926.25 361 a4.75 4.75 0 1 0 9.5 0 a4.75 4.75 0 1 0 -9.5 0zM964.25 437 a4.75 4.75 0 1 0 9.5 0 a4.75 4.75 0 1 0 -9.5 0z" fill="black"></path><path d="M1420.25 247 a4.75 4.75 0 1 0 9.5 0 a4.75 4.75 0 1 0 -9.5 0zM1420.25 361 a4.75 4.75 0 1 0 9.5 0 a4.75 4.75 0 1 0 -9.5 0z" fill="black"></path><path d="M470.25 323 a4.75 4.75 0 1 0 9.5 0 a4.75 4.75 0 1 0 -9.5 0zM394.25 361 a4.75 4.75 0 1 0 9.5 0 a4.75 4.75 0 1 0 -9.5 0z" fill="black"></path><path d="M14.25 133 a4.75 4.75 0 1 0 9.5 0 a4.75 4.75 0 1 0 -9.5 0zM14.25 19 a4.75 4.75 0 1 0 9.5 0 a4.75 4.75 0 1 0 -9.5 0z" fill="black"></path><path d="M318.25 551 a4.75 4.75 0 1 0 9.5 0 a4.75 4.75 0 1 0 -9.5 0zM432.25 551 a4.75 4.75 0 1 0 9.5 0 a4.75 4.75 0 1 0 -9.5 0z" fill="black"></path><path d="M432.25 323 a4.75 4.75 0 1 0 9.5 0 a4.75 4.75 0 1 0 -9.5 0zM508.25 209 a4.75 4.75 0 1 0 9.5 0 a4.75 4.75 0 1 0 -9.5 0z" fill="black"></path><path d="M926.25 323 a4.75 4.75 0 1 0 9.5 0 a4.75 4.75 0 1 0 -9.5 0zM850.25 323 a4.75 4.75 0 1 0 9.5 0 a4.75 4.75 0 1 0 -9.5 0z" fill="black"></path><path d="M1154.25 171 a4.75 4.75 0 1 0 9.5 0 a4.75 4.75 0 1 0 -9.5 0zM1040.25 57 a4.75 4.75 0 1 0 9.5 0 a4.75 4.75 0 1 0 -9.5 0z" fill="black"></path><path d="M1192.25 399 a4.75 4.75 0 1 0 9.5 0 a4.75 4.75 0 1 0 -9.5 0zM1230.25 475 a4.75 4.75 0 1 0 9.5 0 a4.75 4.75 0 1 0 -9.5 0z" fill="black"></path><path d="M774.25 551 a4.75 4.75 0 1 0 9.5 0 a4.75 4.75 0 1 0 -9.5 0zM660.25 513 a4.75 4.75 0 1 0 9.5 0 a4.75 4.75 0 1 0 -9.5 0z" fill="black"></path><path d="M1230.25 361 a4.75 4.75 0 1 0 9.5 0 a4.75 4.75 0 1 0 -9.5 0zM1230.25 285 a4.75 4.75 0 1 0 9.5 0 a4.75 4.75 0 1 0 -9.5 0z" fill="black"></path><path d="M584.25 285 a4.75 4.75 0 1 0 9.5 0 a4.75 4.75 0 1 0 -9.5 0zM508.25 247 a4.75 4.75 0 1 0 9.5 0 a4.75 4.75 0 1 0 -9.5 0z" fill="black"></path><path d="M356.25 437 a4.75 4.75 0 1 0 9.5 0 a4.75 4.75 0 1 0 -9.5 0zM204.25 475 a4.75 4.75 0 1 0 9.5 0 a4.75 4.75 0 1 0 -9.5 0z" fill="black"></path><path d="M1306.25 209 a4.75 4.75 0 1 0 9.5 0 a4.75 4.75 0 1 0 -9.5 0zM1230.25 209 a4.75 4.75 0 1 0 9.5 0 a4.75 4.75 0 1 0 -9.5 0z" fill="black"></path></mask></defs></svg>