<svg xmlns="http://www.w3.org/2000/svg" version="1.1" xmlns:xlink="http://www.w3.org/1999/xlink" xmlns:svgjs="http://svgjs.dev/svgjs" width="1440" height="560" preserveAspectRatio="none" viewBox="0 0 1440 560"><g mask="url(&quot;#SvgjsMask1001&quot;)" fill="none"><rect width="1440" height="560" x="0" y="0" fill="#0e2a47"></rect><path d="M195.9 -58.57L260.85 -21.07L260.85 53.93L195.9 91.43L130.94 53.93L130.94 -21.07zM195.9 166.43L260.85 203.93L260.85 278.93L195.9 316.43L130.94 278.93L130.94 203.93zM260.85 278.93L325.81 316.43L325.81 391.43L260.85 428.93L195.9 391.43L195.9 316.43zM325.81 166.43L390.76 203.93L390.76 278.93L325.81 316.43L260.85 278.93L260.85 203.93zM390.76 503.93L455.71 541.43L455.71 616.43L390.76 653.93L325.81 616.43L325.81 541.43zM520.67 278.93L585.62 316.43L585.62 391.43L520.67 428.93L455.71 391.43L455.71 316.43zM455.71 391.43L520.67 428.93L520.67 503.93L455.71 541.43L390.76 503.93L390.76 428.93zM585.62 -58.57L650.57 -21.07L650.57 53.93L585.62 91.43L520.67 53.93L520.67 -21.07zM585.62 166.43L650.57 203.93L650.57 278.93L585.62 316.43L520.67 278.93L520.67 203.93zM715.53 391.43L780.48 428.93L780.48 503.93L715.53 541.43L650.57 503.93L650.57 428.93zM780.48 503.93L845.44 541.43L845.44 616.43L780.48 653.93L715.53 616.43L715.53 541.43zM845.43 166.43L910.39 203.93L910.39 278.93L845.43 316.43L780.48 278.93L780.48 203.93zM910.39 503.93L975.34 541.43L975.34 616.43L910.39 653.93L845.43 616.43L845.43 541.43zM975.34 -58.57L1040.3 -21.07L1040.3 53.93L975.34 91.43L910.39 53.93L910.39 -21.07zM1040.3 278.93L1105.25 316.43L1105.25 391.43L1040.3 428.93L975.34 391.43L975.34 316.43zM1040.3 503.93L1105.25 541.43L1105.25 616.43L1040.3 653.93L975.34 616.43L975.34 541.43zM1105.25 -58.57L1170.2 -21.07L1170.2 53.93L1105.25 91.43L1040.3 53.93L1040.3 -21.07zM1235.16 -58.57L1300.11 -21.07L1300.11 53.93L1235.16 91.43L1170.2 53.93L1170.2 -21.07zM1300.11 53.93L1365.06 91.43L1365.06 166.43L1300.11 203.93L1235.16 166.43L1235.16 91.43zM1235.16 166.43L1300.11 203.93L1300.11 278.93L1235.16 316.43L1170.2 278.93L1170.2 203.93zM1235.16 391.43L1300.11 428.93L1300.11 503.93L1235.16 541.43L1170.2 503.93L1170.2 428.93zM1494.97 -58.57L1559.93 -21.07L1559.93 53.93L1494.97 91.43L1430.02 53.93L1430.02 -21.07zM1494.97 166.43L1559.93 203.93L1559.93 278.93L1494.97 316.43L1430.02 278.93L1430.02 203.93z" stroke="#03305d" stroke-width="2"></path><path d="M188.4 -58.57 a7.5 7.5 0 1 0 15 0 a7.5 7.5 0 1 0 -15 0zM253.35 -21.07 a7.5 7.5 0 1 0 15 0 a7.5 7.5 0 1 0 -15 0zM253.35 53.93 a7.5 7.5 0 1 0 15 0 a7.5 7.5 0 1 0 -15 0zM188.4 91.43 a7.5 7.5 0 1 0 15 0 a7.5 7.5 0 1 0 -15 0zM123.44 53.93 a7.5 7.5 0 1 0 15 0 a7.5 7.5 0 1 0 -15 0zM123.44 -21.07 a7.5 7.5 0 1 0 15 0 a7.5 7.5 0 1 0 -15 0zM188.4 166.43 a7.5 7.5 0 1 0 15 0 a7.5 7.5 0 1 0 -15 0zM253.35 203.93 a7.5 7.5 0 1 0 15 0 a7.5 7.5 0 1 0 -15 0zM253.35 278.93 a7.5 7.5 0 1 0 15 0 a7.5 7.5 0 1 0 -15 0zM188.4 316.43 a7.5 7.5 0 1 0 15 0 a7.5 7.5 0 1 0 -15 0zM123.44 278.93 a7.5 7.5 0 1 0 15 0 a7.5 7.5 0 1 0 -15 0zM123.44 203.93 a7.5 7.5 0 1 0 15 0 a7.5 7.5 0 1 0 -15 0zM318.31 316.43 a7.5 7.5 0 1 0 15 0 a7.5 7.5 0 1 0 -15 0zM318.31 391.43 a7.5 7.5 0 1 0 15 0 a7.5 7.5 0 1 0 -15 0zM253.35 428.93 a7.5 7.5 0 1 0 15 0 a7.5 7.5 0 1 0 -15 0zM188.4 391.43 a7.5 7.5 0 1 0 15 0 a7.5 7.5 0 1 0 -15 0zM318.31 166.43 a7.5 7.5 0 1 0 15 0 a7.5 7.5 0 1 0 -15 0zM383.26 203.93 a7.5 7.5 0 1 0 15 0 a7.5 7.5 0 1 0 -15 0zM383.26 278.93 a7.5 7.5 0 1 0 15 0 a7.5 7.5 0 1 0 -15 0zM383.26 503.93 a7.5 7.5 0 1 0 15 0 a7.5 7.5 0 1 0 -15 0zM448.21 541.43 a7.5 7.5 0 1 0 15 0 a7.5 7.5 0 1 0 -15 0zM448.21 616.43 a7.5 7.5 0 1 0 15 0 a7.5 7.5 0 1 0 -15 0zM383.26 653.93 a7.5 7.5 0 1 0 15 0 a7.5 7.5 0 1 0 -15 0zM318.31 616.43 a7.5 7.5 0 1 0 15 0 a7.5 7.5 0 1 0 -15 0zM318.31 541.43 a7.5 7.5 0 1 0 15 0 a7.5 7.5 0 1 0 -15 0zM513.17 278.93 a7.5 7.5 0 1 0 15 0 a7.5 7.5 0 1 0 -15 0zM578.12 316.43 a7.5 7.5 0 1 0 15 0 a7.5 7.5 0 1 0 -15 0zM578.12 391.43 a7.5 7.5 0 1 0 15 0 a7.5 7.5 0 1 0 -15 0zM513.17 428.93 a7.5 7.5 0 1 0 15 0 a7.5 7.5 0 1 0 -15 0zM448.21 391.43 a7.5 7.5 0 1 0 15 0 a7.5 7.5 0 1 0 -15 0zM448.21 316.43 a7.5 7.5 0 1 0 15 0 a7.5 7.5 0 1 0 -15 0zM513.17 503.93 a7.5 7.5 0 1 0 15 0 a7.5 7.5 0 1 0 -15 0zM383.26 428.93 a7.5 7.5 0 1 0 15 0 a7.5 7.5 0 1 0 -15 0zM578.12 -58.57 a7.5 7.5 0 1 0 15 0 a7.5 7.5 0 1 0 -15 0zM643.07 -21.07 a7.5 7.5 0 1 0 15 0 a7.5 7.5 0 1 0 -15 0zM643.07 53.93 a7.5 7.5 0 1 0 15 0 a7.5 7.5 0 1 0 -15 0zM578.12 91.43 a7.5 7.5 0 1 0 15 0 a7.5 7.5 0 1 0 -15 0zM513.17 53.93 a7.5 7.5 0 1 0 15 0 a7.5 7.5 0 1 0 -15 0zM513.17 -21.07 a7.5 7.5 0 1 0 15 0 a7.5 7.5 0 1 0 -15 0zM578.12 166.43 a7.5 7.5 0 1 0 15 0 a7.5 7.5 0 1 0 -15 0zM643.07 203.93 a7.5 7.5 0 1 0 15 0 a7.5 7.5 0 1 0 -15 0zM643.07 278.93 a7.5 7.5 0 1 0 15 0 a7.5 7.5 0 1 0 -15 0zM513.17 203.93 a7.5 7.5 0 1 0 15 0 a7.5 7.5 0 1 0 -15 0zM708.03 391.43 a7.5 7.5 0 1 0 15 0 a7.5 7.5 0 1 0 -15 0zM772.98 428.93 a7.5 7.5 0 1 0 15 0 a7.5 7.5 0 1 0 -15 0zM772.98 503.93 a7.5 7.5 0 1 0 15 0 a7.5 7.5 0 1 0 -15 0zM708.03 541.43 a7.5 7.5 0 1 0 15 0 a7.5 7.5 0 1 0 -15 0zM643.07 503.93 a7.5 7.5 0 1 0 15 0 a7.5 7.5 0 1 0 -15 0zM643.07 428.93 a7.5 7.5 0 1 0 15 0 a7.5 7.5 0 1 0 -15 0zM837.94 541.43 a7.5 7.5 0 1 0 15 0 a7.5 7.5 0 1 0 -15 0zM837.94 616.43 a7.5 7.5 0 1 0 15 0 a7.5 7.5 0 1 0 -15 0zM772.98 653.93 a7.5 7.5 0 1 0 15 0 a7.5 7.5 0 1 0 -15 0zM708.03 616.43 a7.5 7.5 0 1 0 15 0 a7.5 7.5 0 1 0 -15 0zM837.93 166.43 a7.5 7.5 0 1 0 15 0 a7.5 7.5 0 1 0 -15 0zM902.89 203.93 a7.5 7.5 0 1 0 15 0 a7.5 7.5 0 1 0 -15 0zM902.89 278.93 a7.5 7.5 0 1 0 15 0 a7.5 7.5 0 1 0 -15 0zM837.93 316.43 a7.5 7.5 0 1 0 15 0 a7.5 7.5 0 1 0 -15 0zM772.98 278.93 a7.5 7.5 0 1 0 15 0 a7.5 7.5 0 1 0 -15 0zM772.98 203.93 a7.5 7.5 0 1 0 15 0 a7.5 7.5 0 1 0 -15 0zM902.89 503.93 a7.5 7.5 0 1 0 15 0 a7.5 7.5 0 1 0 -15 0zM967.84 541.43 a7.5 7.5 0 1 0 15 0 a7.5 7.5 0 1 0 -15 0zM967.84 616.43 a7.5 7.5 0 1 0 15 0 a7.5 7.5 0 1 0 -15 0zM902.89 653.93 a7.5 7.5 0 1 0 15 0 a7.5 7.5 0 1 0 -15 0zM837.93 616.43 a7.5 7.5 0 1 0 15 0 a7.5 7.5 0 1 0 -15 0zM837.93 541.43 a7.5 7.5 0 1 0 15 0 a7.5 7.5 0 1 0 -15 0zM967.84 -58.57 a7.5 7.5 0 1 0 15 0 a7.5 7.5 0 1 0 -15 0zM1032.8 -21.07 a7.5 7.5 0 1 0 15 0 a7.5 7.5 0 1 0 -15 0zM1032.8 53.93 a7.5 7.5 0 1 0 15 0 a7.5 7.5 0 1 0 -15 0zM967.84 91.43 a7.5 7.5 0 1 0 15 0 a7.5 7.5 0 1 0 -15 0zM902.89 53.93 a7.5 7.5 0 1 0 15 0 a7.5 7.5 0 1 0 -15 0zM902.89 -21.07 a7.5 7.5 0 1 0 15 0 a7.5 7.5 0 1 0 -15 0zM1032.8 278.93 a7.5 7.5 0 1 0 15 0 a7.5 7.5 0 1 0 -15 0zM1097.75 316.43 a7.5 7.5 0 1 0 15 0 a7.5 7.5 0 1 0 -15 0zM1097.75 391.43 a7.5 7.5 0 1 0 15 0 a7.5 7.5 0 1 0 -15 0zM1032.8 428.93 a7.5 7.5 0 1 0 15 0 a7.5 7.5 0 1 0 -15 0zM967.84 391.43 a7.5 7.5 0 1 0 15 0 a7.5 7.5 0 1 0 -15 0zM967.84 316.43 a7.5 7.5 0 1 0 15 0 a7.5 7.5 0 1 0 -15 0zM1032.8 503.93 a7.5 7.5 0 1 0 15 0 a7.5 7.5 0 1 0 -15 0zM1097.75 541.43 a7.5 7.5 0 1 0 15 0 a7.5 7.5 0 1 0 -15 0zM1097.75 616.43 a7.5 7.5 0 1 0 15 0 a7.5 7.5 0 1 0 -15 0zM1032.8 653.93 a7.5 7.5 0 1 0 15 0 a7.5 7.5 0 1 0 -15 0zM1097.75 -58.57 a7.5 7.5 0 1 0 15 0 a7.5 7.5 0 1 0 -15 0zM1162.7 -21.07 a7.5 7.5 0 1 0 15 0 a7.5 7.5 0 1 0 -15 0zM1162.7 53.93 a7.5 7.5 0 1 0 15 0 a7.5 7.5 0 1 0 -15 0zM1097.75 91.43 a7.5 7.5 0 1 0 15 0 a7.5 7.5 0 1 0 -15 0zM1227.66 -58.57 a7.5 7.5 0 1 0 15 0 a7.5 7.5 0 1 0 -15 0zM1292.61 -21.07 a7.5 7.5 0 1 0 15 0 a7.5 7.5 0 1 0 -15 0zM1292.61 53.93 a7.5 7.5 0 1 0 15 0 a7.5 7.5 0 1 0 -15 0zM1227.66 91.43 a7.5 7.5 0 1 0 15 0 a7.5 7.5 0 1 0 -15 0zM1357.56 91.43 a7.5 7.5 0 1 0 15 0 a7.5 7.5 0 1 0 -15 0zM1357.56 166.43 a7.5 7.5 0 1 0 15 0 a7.5 7.5 0 1 0 -15 0zM1292.61 203.93 a7.5 7.5 0 1 0 15 0 a7.5 7.5 0 1 0 -15 0zM1227.66 166.43 a7.5 7.5 0 1 0 15 0 a7.5 7.5 0 1 0 -15 0zM1292.61 278.93 a7.5 7.5 0 1 0 15 0 a7.5 7.5 0 1 0 -15 0zM1227.66 316.43 a7.5 7.5 0 1 0 15 0 a7.5 7.5 0 1 0 -15 0zM1162.7 278.93 a7.5 7.5 0 1 0 15 0 a7.5 7.5 0 1 0 -15 0zM1162.7 203.93 a7.5 7.5 0 1 0 15 0 a7.5 7.5 0 1 0 -15 0zM1227.66 391.43 a7.5 7.5 0 1 0 15 0 a7.5 7.5 0 1 0 -15 0zM1292.61 428.93 a7.5 7.5 0 1 0 15 0 a7.5 7.5 0 1 0 -15 0zM1292.61 503.93 a7.5 7.5 0 1 0 15 0 a7.5 7.5 0 1 0 -15 0zM1227.66 541.43 a7.5 7.5 0 1 0 15 0 a7.5 7.5 0 1 0 -15 0zM1162.7 503.93 a7.5 7.5 0 1 0 15 0 a7.5 7.5 0 1 0 -15 0zM1162.7 428.93 a7.5 7.5 0 1 0 15 0 a7.5 7.5 0 1 0 -15 0zM1487.47 -58.57 a7.5 7.5 0 1 0 15 0 a7.5 7.5 0 1 0 -15 0zM1552.43 -21.07 a7.5 7.5 0 1 0 15 0 a7.5 7.5 0 1 0 -15 0zM1552.43 53.93 a7.5 7.5 0 1 0 15 0 a7.5 7.5 0 1 0 -15 0zM1487.47 91.43 a7.5 7.5 0 1 0 15 0 a7.5 7.5 0 1 0 -15 0zM1422.52 53.93 a7.5 7.5 0 1 0 15 0 a7.5 7.5 0 1 0 -15 0zM1422.52 -21.07 a7.5 7.5 0 1 0 15 0 a7.5 7.5 0 1 0 -15 0zM1487.47 166.43 a7.5 7.5 0 1 0 15 0 a7.5 7.5 0 1 0 -15 0zM1552.43 203.93 a7.5 7.5 0 1 0 15 0 a7.5 7.5 0 1 0 -15 0zM1552.43 278.93 a7.5 7.5 0 1 0 15 0 a7.5 7.5 0 1 0 -15 0zM1487.47 316.43 a7.5 7.5 0 1 0 15 0 a7.5 7.5 0 1 0 -15 0zM1422.52 278.93 a7.5 7.5 0 1 0 15 0 a7.5 7.5 0 1 0 -15 0zM1422.52 203.93 a7.5 7.5 0 1 0 15 0 a7.5 7.5 0 1 0 -15 0z" fill="#03305d"></path><path d="M38.22 417.88L81.52 442.88L81.52 492.88L38.22 517.88L-5.08 492.88L-5.08 442.88zM168.13 42.88L211.43 67.88L211.43 117.88L168.13 142.88L124.83 117.88L124.83 67.88zM124.83 117.88L168.13 142.88L168.13 192.88L124.83 217.88L81.52 192.88L81.52 142.88zM124.83 417.88L168.13 442.88L168.13 492.88L124.83 517.88L81.52 492.88L81.52 442.88zM211.43 267.88L254.73 292.88L254.73 342.88L211.43 367.88L168.13 342.88L168.13 292.88zM254.73 342.88L298.03 367.88L298.03 417.88L254.73 442.88L211.43 417.88L211.43 367.88zM341.34 342.88L384.64 367.88L384.64 417.88L341.34 442.88L298.03 417.88L298.03 367.88zM298.03 417.88L341.34 442.88L341.34 492.88L298.03 517.88L254.73 492.88L254.73 442.88zM384.64 117.88L427.94 142.88L427.94 192.88L384.64 217.88L341.34 192.88L341.34 142.88zM427.94 342.88L471.25 367.88L471.25 417.88L427.94 442.88L384.64 417.88L384.64 367.88zM471.25 -32.12L514.55 -7.12L514.55 42.88L471.25 67.88L427.94 42.88L427.94 -7.12zM514.55 192.88L557.85 217.88L557.85 267.88L514.55 292.88L471.25 267.88L471.25 217.88zM471.25 267.88L514.55 292.88L514.55 342.88L471.25 367.88L427.94 342.88L427.94 292.88zM514.55 492.88L557.85 517.88L557.85 567.88L514.55 592.88L471.25 567.88L471.25 517.88zM557.85 -32.12L601.15 -7.12L601.15 42.88L557.85 67.88L514.55 42.88L514.55 -7.12zM601.15 42.88L644.46 67.88L644.46 117.88L601.15 142.88L557.85 117.88L557.85 67.88zM557.85 117.88L601.15 142.88L601.15 192.88L557.85 217.88L514.55 192.88L514.55 142.88zM557.85 267.88L601.15 292.88L601.15 342.88L557.85 367.88L514.55 342.88L514.55 292.88zM687.76 42.88L731.06 67.88L731.06 117.88L687.76 142.88L644.46 117.88L644.46 67.88zM644.46 267.88L687.76 292.88L687.76 342.88L644.46 367.88L601.15 342.88L601.15 292.88zM687.76 342.88L731.06 367.88L731.06 417.88L687.76 442.88L644.46 417.88L644.46 367.88zM644.46 417.88L687.76 442.88L687.76 492.88L644.46 517.88L601.15 492.88L601.15 442.88zM687.76 492.88L731.06 517.88L731.06 567.88L687.76 592.88L644.46 567.88L644.46 517.88zM860.97 42.88L904.27 67.88L904.27 117.88L860.97 142.88L817.67 117.88L817.67 67.88zM817.67 267.88L860.97 292.88L860.97 342.88L817.67 367.88L774.36 342.88L774.36 292.88zM817.67 417.88L860.97 442.88L860.97 492.88L817.67 517.88L774.36 492.88L774.36 442.88zM904.27 117.88L947.57 142.88L947.57 192.88L904.27 217.88L860.97 192.88L860.97 142.88zM904.27 417.88L947.57 442.88L947.57 492.88L904.27 517.88L860.97 492.88L860.97 442.88zM947.57 492.88L990.88 517.88L990.88 567.88L947.57 592.88L904.27 567.88L904.27 517.88zM990.88 117.88L1034.18 142.88L1034.18 192.88L990.88 217.88L947.57 192.88L947.57 142.88zM990.88 267.88L1034.18 292.88L1034.18 342.88L990.88 367.88L947.57 342.88L947.57 292.88zM1034.18 342.88L1077.48 367.88L1077.48 417.88L1034.18 442.88L990.88 417.88L990.88 367.88zM1077.48 267.88L1120.78 292.88L1120.78 342.88L1077.48 367.88L1034.18 342.88L1034.18 292.88zM1120.78 492.88L1164.09 517.88L1164.09 567.88L1120.78 592.88L1077.48 567.88L1077.48 517.88zM1207.39 192.88L1250.69 217.88L1250.69 267.88L1207.39 292.88L1164.09 267.88L1164.09 217.88zM1250.69 267.88L1293.99 292.88L1293.99 342.88L1250.69 367.88L1207.39 342.88L1207.39 292.88zM1380.6 342.88L1423.9 367.88L1423.9 417.88L1380.6 442.88L1337.3 417.88L1337.3 367.88zM1467.2 42.88L1510.51 67.88L1510.51 117.88L1467.2 142.88L1423.9 117.88L1423.9 67.88zM1467.2 492.88L1510.51 517.88L1510.51 567.88L1467.2 592.88L1423.9 567.88L1423.9 517.88z" stroke="rgba(6, 80, 156, 0.93)" stroke-width="2"></path></g><defs><mask id="SvgjsMask1001"><rect width="1440" height="560" fill="#ffffff"></rect></mask></defs></svg>