<svg xmlns="http://www.w3.org/2000/svg" version="1.1" xmlns:xlink="http://www.w3.org/1999/xlink" xmlns:svgjs="http://svgjs.dev/svgjs" width="1440" height="560" preserveAspectRatio="none" viewBox="0 0 1440 560"><g mask="url(&quot;#SvgjsMask1513&quot;)" fill="none"><path d="M20.82 180.7L85.77 218.2L85.77 293.2L20.82 330.7L-44.13 293.2L-44.13 218.2zM215.68 518.2L280.63 555.7L280.63 630.7L215.68 668.2L150.73 630.7L150.73 555.7zM280.63 -44.3L345.59 -6.8L345.59 68.2L280.63 105.7L215.68 68.2L215.68 -6.8zM280.63 405.7L345.59 443.2L345.59 518.2L280.63 555.7L215.68 518.2L215.68 443.2zM410.54 405.7L475.5 443.2L475.5 518.2L410.54 555.7L345.59 518.2L345.59 443.2zM475.5 518.2L540.45 555.7L540.45 630.7L475.5 668.2L410.54 630.7L410.54 555.7zM540.45 180.7L605.4 218.2L605.4 293.2L540.45 330.7L475.5 293.2L475.5 218.2zM670.36 -44.3L735.31 -6.8L735.31 68.2L670.36 105.7L605.4 68.2L605.4 -6.8zM670.36 180.7L735.31 218.2L735.31 293.2L670.36 330.7L605.4 293.2L605.4 218.2zM670.36 405.7L735.31 443.2L735.31 518.2L670.36 555.7L605.4 518.2L605.4 443.2zM865.22 293.2L930.17 330.7L930.17 405.7L865.22 443.2L800.26 405.7L800.26 330.7zM995.13 518.2L1060.08 555.7L1060.08 630.7L995.13 668.2L930.17 630.7L930.17 555.7zM1060.08 -44.3L1125.03 -6.8L1125.03 68.2L1060.08 105.7L995.13 68.2L995.13 -6.8zM1125.03 68.2L1189.99 105.7L1189.99 180.7L1125.03 218.2L1060.08 180.7L1060.08 105.7zM1060.08 180.7L1125.03 218.2L1125.03 293.2L1060.08 330.7L995.13 293.2L995.13 218.2zM1125.03 293.2L1189.99 330.7L1189.99 405.7L1125.03 443.2L1060.08 405.7L1060.08 330.7zM1254.94 68.2L1319.89 105.7L1319.89 180.7L1254.94 218.2L1189.99 180.7L1189.99 105.7zM1514.76 68.2L1579.71 105.7L1579.71 180.7L1514.76 218.2L1449.8 180.7L1449.8 105.7zM1449.8 405.7L1514.76 443.2L1514.76 518.2L1449.8 555.7L1384.85 518.2L1384.85 443.2zM1514.76 518.2L1579.71 555.7L1579.71 630.7L1514.76 668.2L1449.8 630.7L1449.8 555.7z" stroke="rgba(0, 0, 0, 0)" stroke-width="2"></path><path d="M13.32 180.7 a7.5 7.5 0 1 0 15 0 a7.5 7.5 0 1 0 -15 0zM78.27 218.2 a7.5 7.5 0 1 0 15 0 a7.5 7.5 0 1 0 -15 0zM78.27 293.2 a7.5 7.5 0 1 0 15 0 a7.5 7.5 0 1 0 -15 0zM13.32 330.7 a7.5 7.5 0 1 0 15 0 a7.5 7.5 0 1 0 -15 0zM-51.63 293.2 a7.5 7.5 0 1 0 15 0 a7.5 7.5 0 1 0 -15 0zM-51.63 218.2 a7.5 7.5 0 1 0 15 0 a7.5 7.5 0 1 0 -15 0zM208.18 518.2 a7.5 7.5 0 1 0 15 0 a7.5 7.5 0 1 0 -15 0zM273.13 555.7 a7.5 7.5 0 1 0 15 0 a7.5 7.5 0 1 0 -15 0zM273.13 630.7 a7.5 7.5 0 1 0 15 0 a7.5 7.5 0 1 0 -15 0zM208.18 668.2 a7.5 7.5 0 1 0 15 0 a7.5 7.5 0 1 0 -15 0zM143.23 630.7 a7.5 7.5 0 1 0 15 0 a7.5 7.5 0 1 0 -15 0zM143.23 555.7 a7.5 7.5 0 1 0 15 0 a7.5 7.5 0 1 0 -15 0zM273.13 -44.3 a7.5 7.5 0 1 0 15 0 a7.5 7.5 0 1 0 -15 0zM338.09 -6.8 a7.5 7.5 0 1 0 15 0 a7.5 7.5 0 1 0 -15 0zM338.09 68.2 a7.5 7.5 0 1 0 15 0 a7.5 7.5 0 1 0 -15 0zM273.13 105.7 a7.5 7.5 0 1 0 15 0 a7.5 7.5 0 1 0 -15 0zM208.18 68.2 a7.5 7.5 0 1 0 15 0 a7.5 7.5 0 1 0 -15 0zM208.18 -6.8 a7.5 7.5 0 1 0 15 0 a7.5 7.5 0 1 0 -15 0zM273.13 405.7 a7.5 7.5 0 1 0 15 0 a7.5 7.5 0 1 0 -15 0zM338.09 443.2 a7.5 7.5 0 1 0 15 0 a7.5 7.5 0 1 0 -15 0zM338.09 518.2 a7.5 7.5 0 1 0 15 0 a7.5 7.5 0 1 0 -15 0zM208.18 443.2 a7.5 7.5 0 1 0 15 0 a7.5 7.5 0 1 0 -15 0zM403.04 405.7 a7.5 7.5 0 1 0 15 0 a7.5 7.5 0 1 0 -15 0zM468 443.2 a7.5 7.5 0 1 0 15 0 a7.5 7.5 0 1 0 -15 0zM468 518.2 a7.5 7.5 0 1 0 15 0 a7.5 7.5 0 1 0 -15 0zM403.04 555.7 a7.5 7.5 0 1 0 15 0 a7.5 7.5 0 1 0 -15 0zM532.95 555.7 a7.5 7.5 0 1 0 15 0 a7.5 7.5 0 1 0 -15 0zM532.95 630.7 a7.5 7.5 0 1 0 15 0 a7.5 7.5 0 1 0 -15 0zM468 668.2 a7.5 7.5 0 1 0 15 0 a7.5 7.5 0 1 0 -15 0zM403.04 630.7 a7.5 7.5 0 1 0 15 0 a7.5 7.5 0 1 0 -15 0zM532.95 180.7 a7.5 7.5 0 1 0 15 0 a7.5 7.5 0 1 0 -15 0zM597.9 218.2 a7.5 7.5 0 1 0 15 0 a7.5 7.5 0 1 0 -15 0zM597.9 293.2 a7.5 7.5 0 1 0 15 0 a7.5 7.5 0 1 0 -15 0zM532.95 330.7 a7.5 7.5 0 1 0 15 0 a7.5 7.5 0 1 0 -15 0zM468 293.2 a7.5 7.5 0 1 0 15 0 a7.5 7.5 0 1 0 -15 0zM468 218.2 a7.5 7.5 0 1 0 15 0 a7.5 7.5 0 1 0 -15 0zM662.86 -44.3 a7.5 7.5 0 1 0 15 0 a7.5 7.5 0 1 0 -15 0zM727.81 -6.8 a7.5 7.5 0 1 0 15 0 a7.5 7.5 0 1 0 -15 0zM727.81 68.2 a7.5 7.5 0 1 0 15 0 a7.5 7.5 0 1 0 -15 0zM662.86 105.7 a7.5 7.5 0 1 0 15 0 a7.5 7.5 0 1 0 -15 0zM597.9 68.2 a7.5 7.5 0 1 0 15 0 a7.5 7.5 0 1 0 -15 0zM597.9 -6.8 a7.5 7.5 0 1 0 15 0 a7.5 7.5 0 1 0 -15 0zM662.86 180.7 a7.5 7.5 0 1 0 15 0 a7.5 7.5 0 1 0 -15 0zM727.81 218.2 a7.5 7.5 0 1 0 15 0 a7.5 7.5 0 1 0 -15 0zM727.81 293.2 a7.5 7.5 0 1 0 15 0 a7.5 7.5 0 1 0 -15 0zM662.86 330.7 a7.5 7.5 0 1 0 15 0 a7.5 7.5 0 1 0 -15 0zM662.86 405.7 a7.5 7.5 0 1 0 15 0 a7.5 7.5 0 1 0 -15 0zM727.81 443.2 a7.5 7.5 0 1 0 15 0 a7.5 7.5 0 1 0 -15 0zM727.81 518.2 a7.5 7.5 0 1 0 15 0 a7.5 7.5 0 1 0 -15 0zM662.86 555.7 a7.5 7.5 0 1 0 15 0 a7.5 7.5 0 1 0 -15 0zM597.9 518.2 a7.5 7.5 0 1 0 15 0 a7.5 7.5 0 1 0 -15 0zM597.9 443.2 a7.5 7.5 0 1 0 15 0 a7.5 7.5 0 1 0 -15 0zM857.72 293.2 a7.5 7.5 0 1 0 15 0 a7.5 7.5 0 1 0 -15 0zM922.67 330.7 a7.5 7.5 0 1 0 15 0 a7.5 7.5 0 1 0 -15 0zM922.67 405.7 a7.5 7.5 0 1 0 15 0 a7.5 7.5 0 1 0 -15 0zM857.72 443.2 a7.5 7.5 0 1 0 15 0 a7.5 7.5 0 1 0 -15 0zM792.76 405.7 a7.5 7.5 0 1 0 15 0 a7.5 7.5 0 1 0 -15 0zM792.76 330.7 a7.5 7.5 0 1 0 15 0 a7.5 7.5 0 1 0 -15 0zM987.63 518.2 a7.5 7.5 0 1 0 15 0 a7.5 7.5 0 1 0 -15 0zM1052.58 555.7 a7.5 7.5 0 1 0 15 0 a7.5 7.5 0 1 0 -15 0zM1052.58 630.7 a7.5 7.5 0 1 0 15 0 a7.5 7.5 0 1 0 -15 0zM987.63 668.2 a7.5 7.5 0 1 0 15 0 a7.5 7.5 0 1 0 -15 0zM922.67 630.7 a7.5 7.5 0 1 0 15 0 a7.5 7.5 0 1 0 -15 0zM922.67 555.7 a7.5 7.5 0 1 0 15 0 a7.5 7.5 0 1 0 -15 0zM1052.58 -44.3 a7.5 7.5 0 1 0 15 0 a7.5 7.5 0 1 0 -15 0zM1117.53 -6.8 a7.5 7.5 0 1 0 15 0 a7.5 7.5 0 1 0 -15 0zM1117.53 68.2 a7.5 7.5 0 1 0 15 0 a7.5 7.5 0 1 0 -15 0zM1052.58 105.7 a7.5 7.5 0 1 0 15 0 a7.5 7.5 0 1 0 -15 0zM987.63 68.2 a7.5 7.5 0 1 0 15 0 a7.5 7.5 0 1 0 -15 0zM987.63 -6.8 a7.5 7.5 0 1 0 15 0 a7.5 7.5 0 1 0 -15 0zM1182.49 105.7 a7.5 7.5 0 1 0 15 0 a7.5 7.5 0 1 0 -15 0zM1182.49 180.7 a7.5 7.5 0 1 0 15 0 a7.5 7.5 0 1 0 -15 0zM1117.53 218.2 a7.5 7.5 0 1 0 15 0 a7.5 7.5 0 1 0 -15 0zM1052.58 180.7 a7.5 7.5 0 1 0 15 0 a7.5 7.5 0 1 0 -15 0zM1117.53 293.2 a7.5 7.5 0 1 0 15 0 a7.5 7.5 0 1 0 -15 0zM1052.58 330.7 a7.5 7.5 0 1 0 15 0 a7.5 7.5 0 1 0 -15 0zM987.63 293.2 a7.5 7.5 0 1 0 15 0 a7.5 7.5 0 1 0 -15 0zM987.63 218.2 a7.5 7.5 0 1 0 15 0 a7.5 7.5 0 1 0 -15 0zM1182.49 330.7 a7.5 7.5 0 1 0 15 0 a7.5 7.5 0 1 0 -15 0zM1182.49 405.7 a7.5 7.5 0 1 0 15 0 a7.5 7.5 0 1 0 -15 0zM1117.53 443.2 a7.5 7.5 0 1 0 15 0 a7.5 7.5 0 1 0 -15 0zM1052.58 405.7 a7.5 7.5 0 1 0 15 0 a7.5 7.5 0 1 0 -15 0zM1247.44 68.2 a7.5 7.5 0 1 0 15 0 a7.5 7.5 0 1 0 -15 0zM1312.39 105.7 a7.5 7.5 0 1 0 15 0 a7.5 7.5 0 1 0 -15 0zM1312.39 180.7 a7.5 7.5 0 1 0 15 0 a7.5 7.5 0 1 0 -15 0zM1247.44 218.2 a7.5 7.5 0 1 0 15 0 a7.5 7.5 0 1 0 -15 0zM1507.26 68.2 a7.5 7.5 0 1 0 15 0 a7.5 7.5 0 1 0 -15 0zM1572.21 105.7 a7.5 7.5 0 1 0 15 0 a7.5 7.5 0 1 0 -15 0zM1572.21 180.7 a7.5 7.5 0 1 0 15 0 a7.5 7.5 0 1 0 -15 0zM1507.26 218.2 a7.5 7.5 0 1 0 15 0 a7.5 7.5 0 1 0 -15 0zM1442.3 180.7 a7.5 7.5 0 1 0 15 0 a7.5 7.5 0 1 0 -15 0zM1442.3 105.7 a7.5 7.5 0 1 0 15 0 a7.5 7.5 0 1 0 -15 0zM1442.3 405.7 a7.5 7.5 0 1 0 15 0 a7.5 7.5 0 1 0 -15 0zM1507.26 443.2 a7.5 7.5 0 1 0 15 0 a7.5 7.5 0 1 0 -15 0zM1507.26 518.2 a7.5 7.5 0 1 0 15 0 a7.5 7.5 0 1 0 -15 0zM1442.3 555.7 a7.5 7.5 0 1 0 15 0 a7.5 7.5 0 1 0 -15 0zM1377.35 518.2 a7.5 7.5 0 1 0 15 0 a7.5 7.5 0 1 0 -15 0zM1377.35 443.2 a7.5 7.5 0 1 0 15 0 a7.5 7.5 0 1 0 -15 0zM1572.21 555.7 a7.5 7.5 0 1 0 15 0 a7.5 7.5 0 1 0 -15 0zM1572.21 630.7 a7.5 7.5 0 1 0 15 0 a7.5 7.5 0 1 0 -15 0zM1507.26 668.2 a7.5 7.5 0 1 0 15 0 a7.5 7.5 0 1 0 -15 0zM1442.3 630.7 a7.5 7.5 0 1 0 15 0 a7.5 7.5 0 1 0 -15 0z" fill="rgba(0, 0, 0, 0)"></path><path d="M11.15 -7.12L54.45 17.88L54.45 67.88L11.15 92.88L-32.15 67.88L-32.15 17.88zM54.45 217.88L97.76 242.88L97.76 292.88L54.45 317.88L11.15 292.88L11.15 242.88zM141.06 217.88L184.36 242.88L184.36 292.88L141.06 317.88L97.76 292.88L97.76 242.88zM227.66 67.88L270.96 92.88L270.96 142.88L227.66 167.88L184.36 142.88L184.36 92.88zM227.66 217.88L270.96 242.88L270.96 292.88L227.66 317.88L184.36 292.88L184.36 242.88zM184.36 442.88L227.66 467.88L227.66 517.88L184.36 542.88L141.06 517.88L141.06 467.88zM314.27 367.88L357.57 392.88L357.57 442.88L314.27 467.88L270.96 442.88L270.96 392.88zM270.96 442.88L314.27 467.88L314.27 517.88L270.96 542.88L227.66 517.88L227.66 467.88zM400.87 217.88L444.18 242.88L444.18 292.88L400.87 317.88L357.57 292.88L357.57 242.88zM400.87 367.88L444.18 392.88L444.18 442.88L400.87 467.88L357.57 442.88L357.57 392.88zM357.57 442.88L400.87 467.88L400.87 517.88L357.57 542.88L314.27 517.88L314.27 467.88zM400.87 517.88L444.18 542.88L444.18 592.88L400.87 617.88L357.57 592.88L357.57 542.88zM444.18 -7.12L487.48 17.88L487.48 67.88L444.18 92.88L400.87 67.88L400.87 17.88zM444.18 292.88L487.48 317.88L487.48 367.88L444.18 392.88L400.87 367.88L400.87 317.88zM530.78 -7.12L574.08 17.88L574.08 67.88L530.78 92.88L487.48 67.88L487.48 17.88zM574.08 217.88L617.38 242.88L617.38 292.88L574.08 317.88L530.78 292.88L530.78 242.88zM574.08 367.88L617.38 392.88L617.38 442.88L574.08 467.88L530.78 442.88L530.78 392.88zM574.08 517.88L617.38 542.88L617.38 592.88L574.08 617.88L530.78 592.88L530.78 542.88zM660.69 67.88L703.99 92.88L703.99 142.88L660.69 167.88L617.38 142.88L617.38 92.88zM660.69 217.88L703.99 242.88L703.99 292.88L660.69 317.88L617.38 292.88L617.38 242.88zM617.38 292.88L660.69 317.88L660.69 367.88L617.38 392.88L574.08 367.88L574.08 317.88zM660.69 517.88L703.99 542.88L703.99 592.88L660.69 617.88L617.38 592.88L617.38 542.88zM703.99 292.88L747.29 317.88L747.29 367.88L703.99 392.88L660.69 367.88L660.69 317.88zM1093.71 217.88L1137.02 242.88L1137.02 292.88L1093.71 317.88L1050.41 292.88L1050.41 242.88zM1093.71 517.88L1137.02 542.88L1137.02 592.88L1093.71 617.88L1050.41 592.88L1050.41 542.88zM1137.02 292.88L1180.32 317.88L1180.32 367.88L1137.02 392.88L1093.71 367.88L1093.71 317.88zM1266.92 367.88L1310.23 392.88L1310.23 442.88L1266.92 467.88L1223.62 442.88L1223.62 392.88zM1353.53 67.88L1396.83 92.88L1396.83 142.88L1353.53 167.88L1310.23 142.88L1310.23 92.88zM1353.53 217.88L1396.83 242.88L1396.83 292.88L1353.53 317.88L1310.23 292.88L1310.23 242.88z" stroke="url(&quot;#SvgjsLinearGradient1514&quot;)" stroke-width="2"></path></g><defs><mask id="SvgjsMask1513"><rect width="1440" height="560" fill="#ffffff"></rect></mask><linearGradient x1="220.03199999999998" y1="-220.02399999999997" x2="1219.9679999999998" y2="780.024" gradientUnits="userSpaceOnUse" id="SvgjsLinearGradient1514"><stop stop-color="#0e2a47" offset="0"></stop><stop stop-color="rgba(115, 71, 243, 1)" offset="1"></stop></linearGradient></defs></svg>