<svg xmlns="http://www.w3.org/2000/svg" version="1.1" xmlns:xlink="http://www.w3.org/1999/xlink" xmlns:svgjs="http://svgjs.dev/svgjs" width="1363" height="707" preserveAspectRatio="none" viewBox="0 0 1363 707"><g mask="url(&quot;#SvgjsMask2307&quot;)" fill="none"><path d="M -131.85567441335473,69.5 C -113.66,130.7 -77.26,330.5 -40.85567441335475,375.5 C -4.46,420.5 13.74,286.1 50.14432558664525,294.5 C 86.54,302.9 104.74,408.5 141.14432558664527,417.5 C 177.54,426.5 195.74,292.7 232.14432558664527,339.5 C 268.54,386.3 286.74,653.3 323.14432558664527,651.5 C 359.54,649.7 377.74,345.9 414.14432558664527,330.5 C 450.54,315.1 468.74,595.3 505.14432558664527,574.5 C 541.54,553.7 559.74,232.9 596.1443255866452,226.5 C 632.54,220.1 650.74,519.7 687.1443255866452,542.5 C 723.54,565.3 741.74,378.1 778.1443255866452,340.5 C 814.54,302.9 832.74,352.9 869.1443255866452,354.5 C 905.54,356.1 923.74,306.7 960.1443255866452,348.5 C 996.54,390.3 1014.74,624.9 1051.1443255866452,563.5 C 1087.54,502.1 1105.74,76.7 1142.1443255866452,41.5 C 1178.54,6.3 1196.74,327.3 1233.1443255866452,387.5 C 1269.54,447.7 1298.17,314.5 1324.1443255866452,342.5 C 1350.12,370.5 1355.23,490.5 1363,527.5" stroke="rgba(51, 121, 194, 0.58)" stroke-width="2"></path><path d="M -73.7313128872821,471.5 C -55.53,381.9 -19.13,39.9 17.268687112717895,23.5 C 53.67,7.1 71.87,371.9 108.2686871127179,389.5 C 144.67,407.1 162.87,71.3 199.26868711271788,111.5 C 235.67,151.7 253.87,588.3 290.2686871127179,590.5 C 326.67,592.7 344.87,148.5 381.2686871127179,122.5 C 417.67,96.5 435.87,454.1 472.2686871127179,460.5 C 508.67,466.9 526.87,138.7 563.2686871127179,154.5 C 599.67,170.3 617.87,559.3 654.2686871127179,539.5 C 690.67,519.7 708.87,81.7 745.2686871127179,55.5 C 781.67,29.3 799.87,411.7 836.2686871127179,408.5 C 872.67,405.3 890.87,41.3 927.2686871127179,39.5 C 963.67,37.7 981.87,380.3 1018.2686871127179,399.5 C 1054.67,418.7 1072.87,100.5 1109.268687112718,135.5 C 1145.67,170.5 1163.87,554.7 1200.268687112718,574.5 C 1236.67,594.3 1254.87,262.9 1291.268687112718,234.5 C 1327.67,206.1 1367.92,461.3 1382.268687112718,432.5 C 1396.61,403.7 1366.85,158.9 1363,90.5" stroke="rgba(51, 121, 194, 0.58)" stroke-width="2"></path><path d="M -99.97287525906789,295.5 C -81.77,335.7 -45.37,515.7 -8.972875259067893,496.5 C 27.43,477.3 45.63,174.9 82.02712474093211,199.5 C 118.43,224.1 136.63,604.7 173.0271247409321,619.5 C 209.43,634.3 227.63,303.7 264.0271247409321,273.5 C 300.43,243.3 318.63,459.3 355.0271247409321,468.5 C 391.43,477.7 409.63,310.3 446.0271247409321,319.5 C 482.43,328.7 500.63,556.1 537.0271247409321,514.5 C 573.43,472.9 591.63,112.3 628.0271247409321,111.5 C 664.43,110.7 682.63,524.3 719.0271247409321,510.5 C 755.43,496.7 773.63,61.5 810.0271247409321,42.5 C 846.43,23.5 864.63,361.9 901.0271247409321,415.5 C 937.43,469.1 955.63,317.5 992.0271247409321,310.5 C 1028.43,303.5 1046.63,407.1 1083.027124740932,380.5 C 1119.43,353.9 1137.63,165.3 1174.027124740932,177.5 C 1210.43,189.7 1228.63,458.1 1265.027124740932,441.5 C 1301.43,424.9 1336.43,81.7 1356.027124740932,94.5 C 1375.62,107.3 1361.61,423.3 1363,505.5" stroke="rgba(51, 121, 194, 0.58)" stroke-width="2"></path><path d="M -164.74267614307055,657.5 C -146.54,537.7 -110.14,97.9 -73.74267614307055,58.5 C -37.34,19.1 -19.14,429.3 17.257323856929446,460.5 C 53.66,491.7 71.86,180.3 108.25732385692945,214.5 C 144.66,248.7 162.86,608.5 199.25732385692945,631.5 C 235.66,654.5 253.86,327.3 290.2573238569295,329.5 C 326.66,331.7 344.86,666.5 381.2573238569295,642.5 C 417.66,618.5 435.86,232.5 472.2573238569295,209.5 C 508.66,186.5 526.86,557.5 563.2573238569295,527.5 C 599.66,497.5 617.86,70.7 654.2573238569295,59.5 C 690.66,48.3 708.86,418.7 745.2573238569295,471.5 C 781.66,524.3 799.86,336.1 836.2573238569295,323.5 C 872.66,310.9 890.86,426.7 927.2573238569295,408.5 C 963.66,390.3 981.86,191.5 1018.2573238569295,232.5 C 1054.66,273.5 1072.86,597.3 1109.2573238569294,613.5 C 1145.66,629.7 1163.86,356.1 1200.2573238569294,313.5 C 1236.66,270.9 1258.71,405.5 1291.2573238569294,400.5 C 1323.81,395.5 1348.65,310.9 1363,288.5" stroke="rgba(51, 121, 194, 0.58)" stroke-width="2"></path></g><defs><mask id="SvgjsMask2307"><rect width="1363" height="707" fill="#ffffff"></rect></mask></defs></svg>